<svg width="21" height="20" viewBox="0 0 21 20" fill="none" xmlns="http://www.w3.org/2000/svg">
<g clip-path="url(#clip0_1_64)">
<path fill-rule="evenodd" clip-rule="evenodd" d="M1.79999 18.999V1.00129L1.82031 0.803523C1.83323 0.73995 1.85355 0.678152 1.87942 0.618104C1.90526 0.55808 1.93853 0.499807 1.97546 0.445084L2.10665 0.293263L2.26551 0.167842C2.32277 0.132543 2.38373 0.100794 2.44653 0.0760697C2.50935 0.0513704 2.57401 0.0319211 2.64052 0.0195714L2.84557 0.00012207H18.7545C19.0315 0.00012207 19.2976 0.106094 19.4952 0.293263C19.691 0.480408 19.8 0.734675 19.8 1.00129V18.999C19.8 19.2656 19.691 19.5199 19.4952 19.707L19.3345 19.8324C19.2791 19.8677 19.2181 19.8995 19.1553 19.9242C19.0925 19.9489 19.026 19.9666 18.9595 19.9807L18.7545 20.0001H2.84557C2.56846 20.0001 2.30247 19.8942 2.10665 19.707C1.91083 19.5199 1.79999 19.2656 1.79999 18.999ZM10.2772 0.999542L2.88804 1.00129C2.88804 1.00307 2.88619 1.00479 2.88619 1.00657C2.89728 1.01187 2.88804 1.02072 2.8751 1.02954C2.86772 1.04189 2.85849 1.04897 2.85294 1.03837C2.84923 1.04014 2.8474 1.04014 2.84557 1.04014V3.82993H10.2772V0.999542ZM18.7545 3.82993V0.999542H11.3228V3.82993H18.7545ZM2.84557 4.8293V18.999H18.7545C18.6732 18.999 18.7212 18.9672 18.7545 18.9602V4.8293H2.84557ZM10.8 6.69035C13.8129 6.69035 16.2569 9.02813 16.2569 11.9062C16.2569 14.7843 13.8129 17.122 10.8 17.122C7.78892 17.122 5.34307 14.7843 5.34307 11.9062C5.34307 9.02813 7.78892 6.69035 10.8 6.69035ZM10.8 7.68972C8.36526 7.68972 6.39051 9.57903 6.39051 11.9062C6.39051 14.2334 8.36526 16.1227 10.8 16.1227C13.2347 16.1227 15.2113 14.2334 15.2113 11.9062C15.2113 9.57903 13.2347 7.68972 10.8 7.68972ZM12.5291 9.87568C12.6824 9.64083 13.0057 9.57018 13.2495 9.71673C13.4952 9.86328 13.5691 10.1705 13.4158 10.4054C13.1867 10.7567 13.0888 10.9986 13.0962 11.1982C13.1017 11.3341 13.1682 11.4348 13.2366 11.5336C13.3197 11.6519 13.4121 11.7685 13.4915 11.8921C13.7742 12.3317 13.9829 12.8685 13.4398 13.8979C13.3105 14.1433 12.9946 14.2422 12.7378 14.1186C12.4792 13.9932 12.3757 13.6931 12.505 13.4477C12.6842 13.1087 12.7452 12.8738 12.7138 12.6831C12.6898 12.5295 12.603 12.4147 12.5217 12.3035C12.4293 12.1746 12.3332 12.0492 12.2556 11.915C11.9989 11.4718 11.8474 10.9174 12.5291 9.87568ZM8.3283 9.87568C8.48165 9.64083 8.80306 9.57018 9.04876 9.71673C9.29445 9.86328 9.36834 10.1705 9.21502 10.4054C8.98596 10.7567 8.8862 10.9986 8.89361 11.1982C8.89912 11.3341 8.96749 11.4348 9.03583 11.5336C9.11898 11.6519 9.21133 11.7685 9.29076 11.8921C9.57342 12.3317 9.7803 12.8685 9.23903 13.8979C9.10972 14.1433 8.79383 14.2422 8.53707 14.1186C8.27842 13.9932 8.17498 13.6931 8.30429 13.4477C8.48165 13.1087 8.54444 12.8738 8.51303 12.6831C8.48719 12.5295 8.40221 12.4147 8.32095 12.3035C8.22857 12.1746 8.13251 12.0492 8.05491 11.915C7.79815 11.4718 7.64666 10.9174 8.3283 9.87568ZM10.4287 9.87568C10.582 9.64083 10.9053 9.57018 11.1491 9.71673C11.3948 9.86328 11.4687 10.1705 11.3154 10.4054C11.0863 10.7567 10.9884 10.9986 10.9958 11.1982C11.0014 11.3341 11.0679 11.4348 11.1362 11.5336C11.2193 11.6519 11.3117 11.7685 11.3911 11.8921C11.6738 12.3317 11.8825 12.8685 11.3394 13.8979C11.2101 14.1433 10.8942 14.2422 10.6374 14.1186C10.3788 13.9932 10.2754 13.6931 10.4047 13.4477C10.5838 13.1087 10.6448 12.8738 10.6134 12.6831C10.5894 12.5295 10.5026 12.4147 10.4213 12.3035C10.3289 12.1746 10.2329 12.0492 10.1553 11.915C9.89852 11.4718 9.74703 10.9174 10.4287 9.87568ZM15.9466 2.91528C15.6584 2.91528 15.4238 2.69107 15.4238 2.41562C15.4238 2.13841 15.6584 1.91414 15.9466 1.91414H16.4508C16.739 1.91414 16.9736 2.13841 16.9736 2.41562C16.9736 2.69107 16.739 2.91528 16.4508 2.91528H15.9466ZM13.6264 2.91528C13.3382 2.91528 13.1036 2.69107 13.1036 2.41562C13.1036 2.13841 13.3382 1.91414 13.6264 1.91414H14.1307C14.4207 1.91414 14.6534 2.13841 14.6534 2.41562C14.6534 2.69107 14.4207 2.91528 14.1307 2.91528H13.6264ZM4.66143 2.91528C4.37326 2.91528 4.13868 2.69107 4.13868 2.41562C4.13868 2.13841 4.37326 1.91414 4.66143 1.91414H8.49273C8.78091 1.91414 9.01551 2.13841 9.01551 2.41562C9.01551 2.69107 8.78091 2.91528 8.49273 2.91528H4.66143Z" fill="#366AD0"/>
</g>
<defs>
<clipPath id="clip0_1_64">
<rect width="20" height="20" fill="white" transform="translate(0.799988 0.00012207)"/>
</clipPath>
</defs>
</svg>
