<svg width="20" height="20" viewBox="0 0 20 20" fill="none" xmlns="http://www.w3.org/2000/svg">
<g clip-path="url(#clip0_1_52)">
<path d="M17.337 0.00012207H2.69311C1.73681 0.00012207 0.958923 0.776489 0.958923 1.73093V18.2693C0.958923 19.2238 1.73681 20.0001 2.69311 20.0001H17.337C18.2933 20.0001 19.0712 19.2238 19.0712 18.2693V1.73093C19.0712 0.776489 18.2933 0.00012207 17.337 0.00012207ZM2.11505 1.73093C2.11505 1.41278 2.37435 1.15399 2.69311 1.15399H17.337C17.6558 1.15399 17.9151 1.41278 17.9151 1.73093V4.03851H2.11505V1.73093ZM17.9151 18.2693C17.9151 18.5875 17.6558 18.8463 17.337 18.8463H2.69311C2.37435 18.8463 2.11505 18.5875 2.11505 18.2693V5.19238H17.9151V18.2693Z" fill="#366AD0"/>
<path d="M13.8682 2.01932H12.7123C12.3931 2.01932 12.1343 2.27765 12.1343 2.59625C12.1343 2.91486 12.3931 3.17319 12.7123 3.17319H13.8682C14.1874 3.17319 14.4462 2.91486 14.4462 2.59625C14.4462 2.27765 14.1874 2.01932 13.8682 2.01932Z" fill="#366AD0"/>
<path d="M16.9517 2.01932H15.7959C15.4767 2.01932 15.2178 2.27765 15.2178 2.59625C15.2178 2.91486 15.4767 3.17319 15.7959 3.17319H16.9517C17.2709 3.17319 17.5296 2.91486 17.5296 2.59625C17.5296 2.27765 17.2709 2.01932 16.9517 2.01932Z" fill="#366AD0"/>
<path d="M4.42731 12.0193C4.42731 15.0944 6.93388 17.5963 10.015 17.5963C13.0963 17.5963 15.6029 15.0944 15.6029 12.0193C15.6029 11.8696 15.5967 11.7213 15.5851 11.5747C15.5851 11.5739 15.585 11.5732 15.585 11.5725C15.3561 8.70557 12.9455 6.44238 10.015 6.44238C7.08463 6.44238 4.67407 8.70557 4.44519 11.5725C4.44504 11.5732 4.44504 11.5739 4.44504 11.5747C4.43342 11.7213 4.42731 11.8696 4.42731 12.0193ZM10.015 16.4424C7.67064 16.4424 5.74595 14.6161 5.59337 12.3143C5.71813 12.3655 5.82866 12.4333 5.9548 12.5107C6.29573 12.7202 6.7203 12.9809 7.51011 12.9809C8.29992 12.9809 8.72434 12.7203 9.06543 12.5108C9.34811 12.3372 9.55222 12.2117 10.0149 12.2117C10.4775 12.2117 10.6817 12.3372 10.9644 12.5108C11.3055 12.7202 11.7301 12.9809 12.5199 12.9809C13.3097 12.9809 13.7343 12.7203 14.0754 12.5108C14.2015 12.4333 14.312 12.3655 14.4366 12.3143C14.2842 14.6161 12.3595 16.4424 10.015 16.4424ZM10.015 7.59625C12.1539 7.59625 13.9437 9.11633 14.357 11.131C13.9664 11.2234 13.6987 11.3873 13.4695 11.528C13.1868 11.7016 12.9825 11.8271 12.5199 11.8271C12.0573 11.8271 11.853 11.7016 11.5703 11.528C11.2292 11.3185 10.8048 11.0577 10.0149 11.0577C9.22504 11.0577 8.80063 11.3185 8.45954 11.528C8.17685 11.7016 7.97259 11.8271 7.51011 11.8271C7.04748 11.8271 6.84322 11.7016 6.56053 11.528C6.33136 11.3871 6.0638 11.2233 5.67318 11.131C6.08643 9.11633 7.87627 7.59625 10.015 7.59625Z" fill="#366AD0"/>
</g>
<defs>
<clipPath id="clip0_1_52">
<rect width="20" height="20" fill="white"/>
</clipPath>
</defs>
</svg>
