<svg width="22" height="22" viewBox="0 0 22 22" fill="none" xmlns="http://www.w3.org/2000/svg">
<g clip-path="url(#clip0_1_37)">
<path d="M18.9556 15.312C17.6266 14.1753 16.2778 13.4868 14.9651 14.6217L14.1813 15.3077C13.6078 15.8057 12.5415 18.1323 8.4188 13.3897C4.29697 8.65319 6.74981 7.91571 7.32417 7.42205L8.11231 6.73522C9.41814 5.59766 8.92534 4.16562 7.98352 2.69151L7.41517 1.79864C6.46907 0.327964 5.43882 -0.63789 4.12955 0.497954L3.42212 1.1161C2.84347 1.53764 1.22598 2.90787 0.833632 5.51095C0.361437 8.63431 1.851 12.211 5.26368 16.1353C8.67207 20.0614 12.0092 22.0335 15.1703 21.9991C17.7975 21.9708 19.384 20.5611 19.8803 20.0485L20.5903 19.4295C21.8961 18.2946 21.0848 17.139 19.7549 15.9997L18.9556 15.312Z" fill="#366AD0"/>
</g>
<defs>
<clipPath id="clip0_1_37">
<rect width="22" height="22" fill="white"/>
</clipPath>
</defs>
</svg>
