<svg width="1920" height="866" viewBox="0 0 1920 866" fill="none" xmlns="http://www.w3.org/2000/svg">
<path d="M2240.3 -214.41C2250.86 -95.2298 2232.63 66.749 2176.71 200.757C2121.34 333.419 2020.89 455 1860 455C1769.66 455 1704.23 433.68 1655.5 395.814C1607.76 358.725 1581.69 309.906 1562.23 267.616C1541.19 221.891 1529.26 188.572 1508.52 160.362C1490.93 136.429 1468.23 118.752 1426.51 112.437C1376.12 104.806 1320.95 127.201 1273.94 175.455C1227.18 223.447 1193.74 292.309 1187.3 363.973C1179.19 454.227 1150.29 549.678 1105.24 627.74C1060.91 704.569 996.067 772.535 912.141 792.626C839.952 809.907 783.385 811.57 736.938 798.358C688.914 784.698 657.941 756.923 634.47 728.43C623.237 714.793 613.146 700.255 604.383 687.795C595.212 674.756 587.07 663.361 578.104 652.795C561.029 632.674 541.704 616.471 512.159 606.255C483.641 596.393 446.365 605.068 402.039 629.704C358 654.181 323.152 684.545 294.769 705.038C171.065 794.35 -19.6975 863.462 -184.645 865.459C-267.343 866.46 -349.318 850.645 -413.044 805.937C-479.071 759.614 -519.304 686.595 -523.945 587.848L-424.055 583.152C-420.696 654.605 -393.491 697.499 -355.612 724.073C-315.433 752.262 -257.032 766.327 -185.855 765.466C-43.0526 763.737 127.935 702.149 236.231 623.961C255.53 610.028 302.673 570.524 353.459 542.297C403.958 514.23 474.342 487.367 544.841 511.745C595.545 529.279 628.971 558.186 654.35 588.092C666.61 602.539 677.12 617.387 686.178 630.266C695.643 643.723 703.357 654.776 711.655 664.85C727.247 683.778 742.243 695.901 764.297 702.175C787.927 708.897 825.548 710.529 888.859 695.374C934.433 684.464 980.591 643.681 1018.63 577.76C1055.96 513.072 1080.81 431.773 1087.7 355.027C1096.26 259.691 1140.07 169.553 1202.31 105.67C1264.3 42.0497 1349.88 -0.305967 1441.49 13.5635C1511.77 24.2059 1557.21 57.7577 1589.09 101.129C1617.83 140.224 1636.73 190.285 1653.08 225.82C1671.01 264.791 1688.88 295.113 1716.85 316.849C1743.83 337.809 1785.88 355 1860 355C1960.11 355 2034.83 281.081 2084.42 162.243C2133.45 44.7512 2149.98 -100.77 2140.7 -205.59L2240.3 -214.41Z" fill="#DBE4FB"/>
</svg>
