<svg width="19" height="20" viewBox="0 0 19 20" fill="none" xmlns="http://www.w3.org/2000/svg">
<path fill-rule="evenodd" clip-rule="evenodd" d="M2.33265 4.15024L7.46562 9.28543C8.58513 10.4028 10.4151 10.4038 11.5356 9.28543L16.6686 4.15024C16.7203 4.09854 16.7127 4.01342 16.6527 3.97159C16.1292 3.60647 15.4922 3.39001 14.8061 3.39001H4.19517C3.50898 3.39001 2.872 3.60651 2.34846 3.97159C2.28849 4.01342 2.28095 4.09854 2.33265 4.15024ZM0.960938 6.62421C0.960938 6.08464 1.09472 5.57483 1.33036 5.12673C1.36721 5.05663 1.46062 5.04246 1.51661 5.09846L6.5846 10.1664C8.18947 11.7737 10.8108 11.7746 12.4166 10.1664L17.4846 5.09846C17.5406 5.04246 17.634 5.05663 17.6709 5.12673C17.9065 5.57483 18.0403 6.08468 18.0403 6.62421V13.3758C18.0403 15.1605 16.5885 16.61 14.8061 16.61H4.19517C2.41273 16.61 0.960938 15.1605 0.960938 13.3758V6.62421Z" fill="#366AD0"/>
</svg>
