<svg width="55" height="54" viewBox="0 0 55 54" fill="none" xmlns="http://www.w3.org/2000/svg">
<g clip-path="url(#clip0_8_84)">
<path fill-rule="evenodd" clip-rule="evenodd" d="M30.6981 3.07347L33.9135 5.48027C34.7929 6.1385 35.7185 6.47536 36.8152 6.53643L40.8252 6.7595C43.2265 6.89302 45.1767 8.52937 45.7251 10.871L46.6412 14.7814C46.8917 15.8509 47.3842 16.7039 48.1852 17.4556L51.1137 20.2042C52.8673 21.85 53.3093 24.3571 52.2244 26.5034L50.4126 30.0877C49.9171 31.068 49.746 32.038 49.8764 33.1287L50.3531 37.1167C50.6385 39.5046 49.3656 41.7092 47.155 42.656L43.4629 44.2372C42.4532 44.6696 41.6986 45.3027 41.0975 46.222L38.8992 49.5833C37.5829 51.5959 35.1907 52.4666 32.8887 51.7709L29.0442 50.6091C27.9928 50.2913 27.0078 50.2913 25.9563 50.6091L22.1117 51.7709C19.8098 52.4666 17.4175 51.5959 16.1013 49.5833L13.903 46.222C13.3017 45.3027 12.5472 44.6696 11.5375 44.2372L7.84528 42.6558C5.63465 41.709 4.36175 39.5044 4.64715 37.1165L5.12387 33.1285C5.25423 32.0378 5.08316 31.0678 4.58766 30.0875L2.77582 26.5031C1.69096 24.357 2.13298 21.8499 3.88651 20.204L6.81506 17.4554C7.61599 16.7037 8.10842 15.8507 8.35891 14.7812L9.27501 10.8708C9.82345 8.52926 11.7737 6.89291 14.1749 6.75929L18.1849 6.53622C19.2817 6.47526 20.2073 6.13829 21.0867 5.48006L24.302 3.07326C26.2271 1.63234 28.7729 1.63234 30.6981 3.07347ZM25.449 28.3774L21.9596 24.8881C21.0552 23.9837 19.5883 23.9837 18.684 24.8881C17.7796 25.7925 17.7796 27.2594 18.684 28.1637L23.8162 33.2959C24.7206 34.2001 26.1876 34.2002 27.0918 33.2959C30.1852 30.2024 33.2436 27.0742 36.3228 23.9665C37.2206 23.0603 37.2178 21.5981 36.3128 20.6981C35.4076 19.798 33.9412 19.8005 33.0424 20.7083L25.449 28.3774ZM27.5 9.75101C22.7369 9.75101 18.4246 11.6817 15.3032 14.8032C12.1817 17.9247 10.251 22.2369 10.251 27C10.251 31.7631 12.1817 36.0754 15.3032 39.1968C18.4246 42.3183 22.7369 44.249 27.5 44.249C32.2631 44.249 36.5754 42.3183 39.6968 39.1968C42.8183 36.0754 44.749 31.7631 44.749 27C44.749 22.2369 42.8183 17.9246 39.6968 14.8032C36.5754 11.6817 32.2631 9.75101 27.5 9.75101ZM38.5037 15.9963C35.6877 13.1803 31.7972 11.4385 27.5 11.4385C23.2028 11.4385 19.3124 13.1803 16.4964 15.9963C13.6803 18.8124 11.9385 22.7028 11.9385 27C11.9385 31.2972 13.6803 35.1876 16.4964 38.0037C19.3124 40.8197 23.2028 42.5615 27.5 42.5615C31.7972 42.5615 35.6877 40.8197 38.5037 38.0038C41.3197 35.1878 43.0614 31.2973 43.0614 27.0001C43.0615 22.7028 41.3197 18.8124 38.5037 15.9963Z" fill="#366AD0"/>
</g>
<defs>
<clipPath id="clip0_8_84">
<rect width="54" height="54" fill="white" transform="translate(0.5)"/>
</clipPath>
</defs>
</svg>
