<svg width="21" height="20" viewBox="0 0 21 20" fill="none" xmlns="http://www.w3.org/2000/svg">
<g clip-path="url(#clip0_1_67)">
<path d="M3.83632 3.18192C4.08735 3.18192 4.29085 2.97842 4.29085 2.72739C4.29085 2.47636 4.08735 2.27286 3.83632 2.27286C3.58529 2.27286 3.38179 2.47636 3.38179 2.72739C3.38179 2.97842 3.58529 3.18192 3.83632 3.18192Z" fill="#366AD0"/>
<path d="M5.65448 3.18192C5.90551 3.18192 6.10901 2.97842 6.10901 2.72739C6.10901 2.47636 5.90551 2.27286 5.65448 2.27286C5.40345 2.27286 5.19995 2.47636 5.19995 2.72739C5.19995 2.97842 5.40345 3.18192 5.65448 3.18192Z" fill="#366AD0"/>
<path d="M7.47269 3.18192C7.72372 3.18192 7.92722 2.97842 7.92722 2.72739C7.92722 2.47636 7.72372 2.27286 7.47269 2.27286C7.22165 2.27286 7.01815 2.47636 7.01815 2.72739C7.01815 2.97842 7.22165 3.18192 7.47269 3.18192Z" fill="#366AD0"/>
<path d="M16.5636 3.18192C16.8146 3.18192 17.0181 2.97842 17.0181 2.72739C17.0181 2.47636 16.8146 2.27286 16.5636 2.27286C16.3126 2.27286 16.1091 2.47636 16.1091 2.72739C16.1091 2.97842 16.3126 3.18192 16.5636 3.18192Z" fill="#366AD0"/>
<path d="M17.4727 0.00012207H2.92722C2.15448 0.00012207 1.56358 0.591021 1.56358 1.36375V17.2729C1.56358 18.0456 2.15448 18.6365 2.92722 18.6365V19.5456C2.92722 19.682 2.97268 19.7729 3.06358 19.8638C3.15448 19.9547 3.24542 20.0001 3.38175 20.0001H15.2C15.4727 20.0001 15.6545 19.8183 15.6545 19.5456C15.6545 19.2729 15.4726 19.0911 15.2 19.0911H3.83632V18.182C3.83632 18.0456 3.79085 17.9547 3.69995 17.8638C3.60905 17.7729 3.51811 17.7274 3.38179 17.7274H2.92722C2.65448 17.7274 2.47268 17.5456 2.47268 17.2729V1.36375C2.47268 1.09102 2.65452 0.909224 2.92722 0.909224H17.4727C17.7454 0.909224 17.9272 1.09106 17.9272 1.36375V17.2729C17.9272 17.5456 17.7454 17.7274 17.4727 17.7274H5.19995C4.92722 17.7274 4.74542 17.9092 4.74542 18.1819C4.74542 18.4547 4.92726 18.6364 5.19995 18.6364H16.5636V19.5456C16.5636 19.8183 16.7454 20.0001 17.0181 20.0001C17.2908 20.0001 17.4726 19.8182 17.4726 19.5456V18.6364C18.2454 18.6364 18.8363 18.0456 18.8363 17.2728V1.36375C18.8363 0.591021 18.2454 0.00012207 17.4727 0.00012207Z" fill="#366AD0"/>
<path d="M16.5636 4.54559H3.83632C3.56358 4.54559 3.38179 4.72743 3.38179 5.00012V16.3638C3.38179 16.6365 3.56362 16.8183 3.83632 16.8183H16.5636C16.8363 16.8183 17.0181 16.6364 17.0181 16.3638V5.00012C17.0181 4.72739 16.8363 4.54559 16.5636 4.54559ZM16.1091 15.9092H4.29085V5.45465H16.109L16.1091 15.9092Z" fill="#366AD0"/>
<path d="M7.47269 10.4547C6.19995 10.4547 5.19995 11.4547 5.19995 12.7274C5.19995 14.0001 6.19995 15.0001 7.47269 15.0001C8.74542 15.0001 9.74542 14.0001 9.74542 12.7274C9.74542 11.4547 8.74542 10.4547 7.47269 10.4547ZM7.47269 14.091C6.69995 14.091 6.10905 13.5001 6.10905 12.7274C6.10905 11.9547 6.69995 11.3638 7.47269 11.3638C8.24542 11.3638 8.83632 11.9547 8.83632 12.7274C8.83632 13.5001 8.24542 14.091 7.47269 14.091Z" fill="#366AD0"/>
<path d="M10.2 10.4547C9.92722 10.4547 9.74542 10.6365 9.74542 10.9092C9.74542 11.1819 9.92725 11.3637 10.2 11.3637C10.9727 11.3637 11.5636 11.9546 11.5636 12.7273C11.5636 13.5001 10.9727 14.091 10.2 14.091C9.92722 14.091 9.74542 14.2728 9.74542 14.5455C9.74542 14.8182 9.92722 15.0001 10.2 15.0001C11.4727 15.0001 12.4727 14.0001 12.4727 12.7274C12.4727 11.4547 11.4727 10.4547 10.2 10.4547Z" fill="#366AD0"/>
<path d="M12.9272 10.4547C12.6545 10.4547 12.4727 10.6365 12.4727 10.9092C12.4727 11.1819 12.6545 11.3637 12.9272 11.3637C13.7 11.3637 14.2908 11.9546 14.2908 12.7273C14.2908 13.5001 13.7 14.091 12.9272 14.091C12.6545 14.091 12.4727 14.2728 12.4727 14.5455C12.4727 14.8182 12.6545 15.0001 12.9272 15.0001C14.2 15.0001 15.2 14.0001 15.2 12.7274C15.2 11.4547 14.2 10.4547 12.9272 10.4547Z" fill="#366AD0"/>
<path d="M10.2 6.36375C9.92722 6.36375 9.74542 6.54559 9.74542 6.81829V8.63645C9.74542 8.90918 9.92725 9.09098 10.2 9.09098C10.4726 9.09098 10.6545 8.90915 10.6545 8.63645V6.81829C10.6545 6.54559 10.4727 6.36375 10.2 6.36375Z" fill="#366AD0"/>
<path d="M13.2908 8.45465L12.3817 6.63649C12.2908 6.40922 12.0181 6.31833 11.7908 6.45465C11.5636 6.54555 11.4727 6.81829 11.609 7.04555L12.5181 8.81829C12.609 9.00012 12.7454 9.09102 12.9272 9.09102C13.0181 9.09102 13.0636 9.09102 13.1091 9.04555C13.3363 8.95465 13.4272 8.68196 13.2908 8.45465Z" fill="#366AD0"/>
<path d="M8.60905 6.40922C8.38179 6.31833 8.10905 6.40922 8.01815 6.59106L7.10905 8.40922C6.97269 8.63649 7.06358 8.90922 7.29089 9.04559C7.33636 9.09106 7.38179 9.09106 7.47272 9.09106C7.65456 9.09106 7.79089 9.00016 7.88183 8.81833L8.79093 7.00016C8.88179 6.77286 8.79085 6.50012 8.60905 6.40922Z" fill="#366AD0"/>
</g>
<defs>
<clipPath id="clip0_1_67">
<rect width="20" height="20" fill="white" transform="translate(0.199951 0.00012207)"/>
</clipPath>
</defs>
</svg>
