<svg width="21" height="20" viewBox="0 0 21 20" fill="none" xmlns="http://www.w3.org/2000/svg">
<g clip-path="url(#clip0_1_58)">
<path d="M14.7932 0.00012207H6.00675C4.99156 0.00012207 4.16562 0.82606 4.16562 1.84125V16.9038C4.16562 17.7044 4.6841 18.4028 5.42081 18.6496V19.4142C5.42081 19.7378 5.68316 20.0001 6.00675 20.0001C6.33035 20.0001 6.59269 19.7378 6.59269 19.4142V18.7449H14.2073V19.4142C14.2073 19.7378 14.4696 20.0001 14.7932 20.0001C15.1168 20.0001 15.3792 19.7378 15.3792 19.4142V18.6496C16.1158 18.4028 16.6344 17.7046 16.6344 16.9038V1.84125C16.6344 0.82606 15.8084 0.00012207 14.7932 0.00012207ZM15.4625 16.9038C15.4625 17.0799 15.391 17.2523 15.2665 17.3768C15.14 17.5034 14.9719 17.573 14.7932 17.573H6.00675C5.82812 17.573 5.66003 17.5033 5.53347 17.3768C5.40894 17.2523 5.33749 17.0799 5.33749 16.9038V8.07563H15.4625V16.9038ZM15.4625 6.90376H5.33749V1.84125C5.33749 1.47223 5.63773 1.172 6.00675 1.172H14.7932C15.1623 1.172 15.4625 1.47223 15.4625 1.84125V6.90376Z" fill="#366AD0"/>
<path d="M7.26199 2.51056C6.9384 2.51056 6.67606 2.7729 6.67606 3.0965V4.97931C6.67606 5.3029 6.9384 5.56525 7.26199 5.56525C7.58559 5.56525 7.84793 5.3029 7.84793 4.97931V3.0965C7.84793 2.77286 7.58559 2.51056 7.26199 2.51056Z" fill="#366AD0"/>
<path d="M7.26199 14.3517C7.58559 14.3517 7.84793 14.0893 7.84793 13.7657V10.0001C7.84793 9.67653 7.58559 9.41418 7.26199 9.41418C6.9384 9.41418 6.67606 9.67653 6.67606 10.0001V13.7657C6.67606 14.0893 6.93836 14.3517 7.26199 14.3517Z" fill="#366AD0"/>
</g>
<defs>
<clipPath id="clip0_1_58">
<rect width="20" height="20" fill="white" transform="translate(0.399994 0.00012207)"/>
</clipPath>
</defs>
</svg>
