<svg width="38" height="38" viewBox="0 0 38 38" fill="none" xmlns="http://www.w3.org/2000/svg">
<g clip-path="url(#clip0_2024_96)">
<g clip-path="url(#clip1_2024_96)">
<path fill-rule="evenodd" clip-rule="evenodd" d="M16.0814 1.66158C17.8304 0.435111 20.1695 0.435037 21.9185 1.66158C22.8962 2.34721 23.9519 2.63013 25.1415 2.52519C27.2694 2.33756 29.2952 3.5071 30.1966 5.44376C30.7006 6.52639 31.4734 7.29923 32.556 7.80318C34.4928 8.70464 35.6622 10.7303 35.4746 12.8583C35.3697 14.0479 35.6526 15.1036 36.3382 16.0813C37.5647 17.8304 37.5648 20.1694 36.3382 21.9185C35.6526 22.8962 35.3697 23.952 35.4746 25.1415C35.6623 27.2695 34.4928 29.2951 32.556 30.1966C31.4734 30.7006 30.7006 31.4734 30.1966 32.556C29.2952 34.4927 27.2695 35.6622 25.1415 35.4746C23.9519 35.3697 22.8962 35.6526 21.9185 36.3382C20.1695 37.5647 17.8304 37.5648 16.0814 36.3382C15.1036 35.6526 14.0479 35.3697 12.8584 35.4746C10.7305 35.6622 8.70473 34.4927 7.80327 32.556C7.29933 31.4734 6.52649 30.7005 5.44386 30.1966C3.50719 29.2951 2.33765 27.2694 2.52528 25.1415C2.63022 23.9519 2.3473 22.8962 1.66167 21.9185C0.435205 20.1695 0.435205 17.8303 1.66167 16.0813C2.3473 15.1036 2.63022 14.0479 2.52528 12.8583C2.33765 10.7304 3.50719 8.70456 5.44386 7.80318C6.52649 7.29923 7.2994 6.52639 7.80327 5.44376C8.70473 3.50703 10.7304 2.33756 12.8584 2.52519C14.048 2.63013 15.1037 2.34721 16.0814 1.66158ZM13.1677 19.4573L16.4264 23.8894C16.9602 24.6176 17.9832 24.7752 18.7114 24.2414C18.8598 24.1327 18.9845 24.0036 19.0844 23.8609L24.8323 16.0432C25.366 15.3151 25.2085 14.292 24.4803 13.7582C23.7521 13.2245 22.729 13.3821 22.1953 14.1102L17.7449 20.1631L15.8048 17.5243C15.271 16.7961 14.248 16.6385 13.5197 17.1723C12.7916 17.706 12.6339 18.7291 13.1677 19.4573ZM19.755 5.57639C19.4077 5.01159 18.5921 5.01159 18.2448 5.57639L15.7102 9.6988C15.5061 10.0307 15.1284 10.1872 14.7494 10.0968L10.0421 8.97405C9.39719 8.82027 8.82037 9.3971 8.97415 10.042L10.0969 14.7493C10.1873 15.1283 10.0308 15.506 9.69889 15.7101L5.57649 18.2447C5.01168 18.592 5.01168 19.4077 5.57649 19.7549L9.69889 22.2896C10.0308 22.4937 10.1873 22.8713 10.0969 23.2503L8.97415 27.9577C8.82037 28.6025 9.39719 29.1794 10.0421 29.0256L14.7494 27.9029C15.1284 27.8125 15.5061 27.9689 15.7102 28.3008L18.2448 32.4232C18.5921 32.9881 19.4077 32.9881 19.755 32.4232L22.2897 28.3008C22.4938 27.9689 22.8715 27.8125 23.2505 27.9029L27.9578 29.0256C28.6027 29.1794 29.1795 28.6025 29.0258 27.9577L27.903 23.2503C27.8126 22.8713 27.9691 22.4937 28.301 22.2896L32.4234 19.7549C32.9882 19.4077 32.9882 18.592 32.4234 18.2447L28.301 15.7101C27.9691 15.506 27.8126 15.1283 27.903 14.7493L29.0258 10.042C29.1795 9.3971 28.6027 8.82027 27.9578 8.97405L23.2505 10.0968C22.8715 10.1872 22.4938 10.0307 22.2897 9.6988L19.755 5.57639Z" fill="#91B6FF"/>
</g>
</g>
<defs>
<clipPath id="clip0_2024_96">
<rect width="38" height="38" fill="white"/>
</clipPath>
<clipPath id="clip1_2024_96">
<rect width="38" height="38" fill="white"/>
</clipPath>
</defs>
</svg>
