<svg width="697" height="261" viewBox="0 0 697 261" fill="none" xmlns="http://www.w3.org/2000/svg">
<path fill-rule="evenodd" clip-rule="evenodd" d="M1.03621 259.723C-2.69811 91.1867 70.7434 0.899902 166.59 0.899902C225.095 0.899902 269.906 23.4717 364.509 77.644C434.217 118.273 485.252 145.116 537.531 145.116C587.322 145.116 610.972 93.0188 612.217 1.22705C695.617 1.22705 695.617 1.22705 695.617 1.22705C703.087 189.325 623.42 259.48 536.287 259.48C480.271 259.48 430.48 243.17 334.634 188.998C268.662 149.874 217.626 115.263 167.835 115.263C118.044 115.263 86.925 157.397 85.6803 259.723C1.03608 259.723 1.03621 259.723 1.03621 259.723Z" fill="#7FAAFD"/>
</svg>
