<svg width="39" height="39" viewBox="0 0 39 39" fill="none" xmlns="http://www.w3.org/2000/svg">
<g clip-path="url(#clip0_22_1232)">
<path d="M38.395 28.9926C38.384 28.9721 38.3726 28.952 38.3605 28.9321L23.8519 4.98359C21.8715 1.70804 17.1239 1.71436 15.1488 4.98359L0.640158 28.9321C0.628122 28.952 0.616697 28.9721 0.605728 28.9926C-1.20313 32.384 1.25784 36.4706 5.09257 36.4706H33.9081C37.7517 36.4706 40.1996 32.3763 38.395 28.9926ZM33.9081 33.928H5.09257C3.18278 33.928 1.95991 31.9048 2.83452 30.2168L17.3242 6.29969C18.3142 4.66092 20.6885 4.6642 21.6765 6.29969C21.6767 6.30015 21.677 6.30053 21.6773 6.30106L36.1662 30.2169C37.0414 31.9061 35.8169 33.928 33.9081 33.928Z" fill="#366AD0"/>
<path d="M19.5003 11.0452C18.7982 11.0452 18.229 11.6143 18.229 12.3165V25.0292C18.229 25.7314 18.7982 26.3005 19.5003 26.3005C20.2024 26.3005 20.7716 25.7314 20.7716 25.0292V12.3165C20.7716 11.6144 20.2024 11.0452 19.5003 11.0452Z" fill="#366AD0"/>
<path d="M19.5003 28.843C18.7989 28.843 18.229 29.4141 18.229 30.1143C18.229 30.8146 18.7988 31.3856 19.5003 31.3856C20.2017 31.3856 20.7716 30.8146 20.7716 30.1143C20.7716 29.4141 20.2017 28.843 19.5003 28.843Z" fill="#366AD0"/>
</g>
<defs>
<clipPath id="clip0_22_1232">
<rect width="39" height="39" fill="white"/>
</clipPath>
</defs>
</svg>
