<svg width="38" height="38" viewBox="0 0 38 38" fill="none" xmlns="http://www.w3.org/2000/svg">
<g clip-path="url(#clip0_2024_79)">
<path d="M9.65662 10.1055L26.3816 2.93503L19.4564 0.0900938C19.1639 -0.0300313 18.836 -0.0300313 18.5435 0.0900938L1.91028 6.92319L9.65662 10.1055Z" fill="#91B6FF"/>
<path d="M29.4944 4.21387L12.7643 11.3822L19 13.9439L36.0897 6.92329L29.4944 4.21387Z" fill="#91B6FF"/>
<path d="M17.7987 16.0477L11.0306 13.2674V18.5317C11.0306 19.1951 10.4927 19.733 9.82936 19.733C9.16596 19.733 8.6281 19.1951 8.6281 18.5317V12.2804L0.831909 9.07764V30.2248C0.831909 30.7119 1.12607 31.1508 1.57668 31.3359L17.7987 38.0001V16.0477Z" fill="#91B6FF"/>
<path d="M20.2012 16.0477V38.0001L36.4232 31.3359C36.8738 31.1509 37.1679 30.7119 37.1679 30.2248C37.1679 29.4165 37.1679 9.96243 37.1679 9.07764L20.2012 16.0477Z" fill="#91B6FF"/>
</g>
<defs>
<clipPath id="clip0_2024_79">
<rect width="38" height="38" fill="white"/>
</clipPath>
</defs>
</svg>
