<svg width="55" height="54" viewBox="0 0 55 54" fill="none" xmlns="http://www.w3.org/2000/svg">
<g clip-path="url(#clip0_8_79)">
<path d="M53.1227 21.1244L49.1856 20.3371C48.7525 18.9014 48.1784 17.5151 47.4712 16.1967L49.698 12.8566C50.1164 12.2291 50.0337 11.3936 49.5004 10.8604L43.5342 4.89417C43.001 4.36092 42.1654 4.27823 41.538 4.69642L38.1977 6.92318C36.8794 6.21612 35.4932 5.64216 34.0573 5.20889L33.27 1.27174C33.1222 0.532301 32.4729 0 31.7188 0H23.2812C22.5271 0 21.8778 0.532301 21.7299 1.27174L20.9426 5.20889C19.5067 5.64216 18.1205 6.21622 16.8022 6.92318L13.4619 4.69642C12.8346 4.27823 11.9989 4.36092 11.4657 4.89417L5.49954 10.8604C4.96618 11.3937 4.88349 12.2292 5.30189 12.8566L7.52865 16.1967C6.82148 17.5151 6.24752 18.9014 5.81425 20.3371L1.87721 21.1244C1.13777 21.2723 0.605469 21.9217 0.605469 22.6758V31.1133C0.605469 31.8674 1.13777 32.5168 1.87732 32.6645L5.81436 33.4519C6.24752 34.8876 6.82159 36.2739 7.52875 37.5922L5.30199 40.9324C4.8836 41.5599 4.96639 42.3954 5.49964 42.9286L11.4658 48.8948C11.9992 49.4281 12.8346 49.5108 13.462 49.0925L16.7339 46.9114V36.98C14.2562 34.3427 12.7344 30.7995 12.7344 26.8945C12.7344 18.7397 19.3452 12.1289 27.5 12.1289C35.6548 12.1289 42.2656 18.7397 42.2656 26.8945C42.2656 30.7995 40.7438 34.3427 38.2661 36.98V46.9114L41.538 49.0925C41.8057 49.271 42.1112 49.3583 42.415 49.3583C42.8232 49.3583 43.2285 49.2006 43.5341 48.8949L49.5003 42.9287C50.0335 42.3955 50.1163 41.56 49.6979 40.9325L47.4711 37.5923C48.1783 36.274 48.7523 34.8877 49.1855 33.452L53.1226 32.6646C53.8622 32.5168 54.3945 31.8674 54.3945 31.1133V22.6758C54.3945 21.9217 53.8622 21.2723 53.1227 21.1244Z" fill="#366AD0"/>
<path d="M32.5118 18.2261C31.7156 17.7649 30.7054 18.2543 30.5739 19.1649L29.6094 25.8398H25.3906L24.4262 19.1649C24.2946 18.2543 23.2845 17.7649 22.4883 18.2261C19.3993 20.0154 17.4805 23.3371 17.4805 26.8945C17.4805 30.7496 19.6394 34.1982 23.1147 35.8945L23.2812 35.9758V52.418C23.2812 53.2917 23.9896 54 24.8633 54H30.1367C31.0104 54 31.7188 53.2917 31.7188 52.418V35.9758L31.8853 35.8945C35.3606 34.1982 37.5195 30.7496 37.5195 26.8945C37.5195 23.3371 35.6007 20.0154 32.5118 18.2261Z" fill="#366AD0"/>
</g>
<defs>
<clipPath id="clip0_8_79">
<rect width="54" height="54" fill="white" transform="translate(0.5)"/>
</clipPath>
</defs>
</svg>
