<svg width="21" height="20" viewBox="0 0 21 20" fill="none" xmlns="http://www.w3.org/2000/svg">
<g clip-path="url(#clip0_1_105)">
<path d="M17.3951 0.000122111H3.80481C3.68049 0.000122111 3.56126 0.0495081 3.47335 0.137416C3.38545 0.225323 3.33606 0.344552 3.33606 0.468872V15.5024C3.33606 15.6267 3.38545 15.7459 3.47335 15.8338C3.56126 15.9218 3.68049 15.9711 3.80481 15.9711H4.79461L5.3409 18.1415C5.3664 18.2427 5.42496 18.3326 5.50731 18.3968C5.58965 18.4609 5.69107 18.4958 5.79547 18.4958H6.51961V19.5314C6.51961 19.6557 6.569 19.7749 6.65691 19.8628C6.74482 19.9507 6.86404 20.0001 6.98836 20.0001C7.11268 20.0001 7.23191 19.9507 7.31982 19.8628C7.40773 19.7749 7.45711 19.6557 7.45711 19.5314V18.4958H8.18129C8.2857 18.4958 8.38712 18.4609 8.46946 18.3968C8.55181 18.3326 8.61037 18.2427 8.63586 18.1415L9.182 15.9711H12.0179L12.5642 18.1415C12.5897 18.2427 12.6483 18.3326 12.7306 18.3968C12.813 18.4609 12.9144 18.4958 13.0188 18.4958H13.743V19.5314C13.743 19.6557 13.7924 19.7749 13.8803 19.8628C13.9682 19.9507 14.0874 20.0001 14.2117 20.0001C14.336 20.0001 14.4553 19.9507 14.5432 19.8628C14.6311 19.7749 14.6805 19.6557 14.6805 19.5314V18.4958H15.4047C15.5091 18.4958 15.6105 18.4609 15.6928 18.3968C15.7752 18.3326 15.8337 18.2427 15.8592 18.1415L16.4056 15.9711H17.3953C17.5196 15.9711 17.6389 15.9218 17.7268 15.8338C17.8147 15.7459 17.8641 15.6267 17.8641 15.5024V0.468872C17.8641 0.407299 17.8519 0.346328 17.8284 0.289444C17.8048 0.23256 17.7703 0.180877 17.7267 0.137347C17.6832 0.0938167 17.6315 0.0592929 17.5746 0.0357475C17.5177 0.0122021 17.4567 9.64554e-05 17.3951 0.000122111ZM13.384 0.937622H14.6909V5.27774H13.384V0.937622ZM6.50899 0.937622H7.81594V5.27774H6.50899V0.937622ZM5.57149 0.937622V5.74649C5.57149 5.87081 5.62088 5.99004 5.70878 6.07795C5.79669 6.16585 5.91592 6.21524 6.04024 6.21524H8.28469C8.40901 6.21524 8.52824 6.16585 8.61615 6.07795C8.70406 5.99004 8.75344 5.87081 8.75344 5.74649V0.937622H12.4465V5.74649C12.4465 5.87081 12.4959 5.99004 12.5838 6.07795C12.6717 6.16585 12.7909 6.21524 12.9152 6.21524H15.1597C15.284 6.21524 15.4032 6.16585 15.4911 6.07795C15.5791 5.99004 15.6284 5.87081 15.6284 5.74649V0.937622H16.9264V13.1642H4.27356V0.937622H5.57149ZM7.81594 17.5583H6.16083L5.76133 15.9711H8.21543L7.81594 17.5583ZM15.0391 17.5583H13.384L12.9845 15.9711H15.4386L15.0391 17.5583ZM4.27348 15.0336V14.1017H16.9264V15.0336H4.27348ZM10.6 12.754C11.2142 12.754 11.8146 12.5719 12.3253 12.2307C12.836 11.8894 13.234 11.4044 13.469 10.837C13.7041 10.2695 13.7656 9.64511 13.6458 9.04271C13.5259 8.44031 13.2302 7.88697 12.7959 7.45266C12.3616 7.01835 11.8082 6.72259 11.2058 6.60276C10.6034 6.48294 9.979 6.54444 9.41155 6.77948C8.8441 7.01453 8.3591 7.41256 8.01786 7.92325C7.67663 8.43395 7.4945 9.03436 7.4945 9.64856C7.49543 10.4719 7.82291 11.2612 8.4051 11.8434C8.98728 12.4256 9.77663 12.7531 10.6 12.754ZM10.6 7.48059C10.9186 7.48038 11.2334 7.55041 11.5218 7.68569C11.8103 7.82097 12.0655 8.01818 12.269 8.26328C12.4726 8.50838 12.6197 8.79535 12.6998 9.10375C12.7799 9.41216 12.791 9.73443 12.7323 10.0476C12.6737 10.3608 12.5467 10.6572 12.3605 10.9157C12.1742 11.1743 11.9333 11.3886 11.6548 11.5434C11.3763 11.6982 11.0671 11.7898 10.7492 11.8115C10.4313 11.8332 10.1126 11.7846 9.81559 11.6691L10.7237 10.4341C10.7607 10.3845 10.7874 10.3281 10.8025 10.2682C10.8176 10.2082 10.8206 10.1459 10.8115 10.0847C10.8024 10.0236 10.7812 9.96488 10.7493 9.91194C10.7174 9.85901 10.6753 9.8129 10.6255 9.77629C10.5757 9.73967 10.5192 9.71327 10.4591 9.6986C10.3991 9.68392 10.3367 9.68127 10.2756 9.6908C10.2146 9.70032 10.156 9.72183 10.1033 9.75409C10.0505 9.78635 10.0047 9.82872 9.9684 9.87876L9.03567 11.1473C8.74143 10.8408 8.5438 10.4546 8.46736 10.0367C8.39092 9.61877 8.43905 9.18761 8.60576 8.79684C8.77247 8.40607 9.05041 8.07294 9.40498 7.83891C9.75956 7.60488 10.1751 7.48027 10.6 7.48059Z" fill="#366AD0"/>
</g>
<defs>
<clipPath id="clip0_1_105">
<rect width="20" height="20" fill="white" transform="translate(0.599976 0.00012207)"/>
</clipPath>
</defs>
</svg>
