<svg width="19" height="20" viewBox="0 0 19 20" fill="none" xmlns="http://www.w3.org/2000/svg">
<path d="M8.86621 0.500977C13.063 0.500977 16.4658 3.88293 16.4658 8.05469C16.4654 11.6685 10.7632 17.7122 9.23776 19.2644C8.99976 19.5066 8.70033 19.5989 8.44645 19.3734C6.853 17.9584 1.26803 11.6314 1.26758 8.05469C1.26758 3.88305 4.66957 0.50118 8.86621 0.500977ZM8.86621 4.5293C6.90795 4.52946 5.3205 6.10715 5.32031 8.05371C5.32031 10.0004 6.90784 11.5789 8.86621 11.5791C10.8247 11.5791 12.4131 10.0005 12.4131 8.05371C12.4129 6.10705 10.8246 4.5293 8.86621 4.5293Z" fill="#366AD0"/>
</svg>
