<svg width="38" height="38" viewBox="0 0 38 38" fill="none" xmlns="http://www.w3.org/2000/svg">
<g clip-path="url(#clip0_2024_86)">
<path d="M37.3618 16.9877L20.3124 1.4524C19.5641 0.770401 18.4356 0.770475 17.6876 1.45232L0.638135 16.9878C0.0386711 17.534 -0.159344 18.3756 0.133523 19.1319C0.426463 19.8881 1.1397 20.3767 1.95069 20.3767H4.67377V35.9419C4.67377 36.559 5.17415 37.0594 5.79128 37.0594H15.1364C15.7536 37.0594 16.254 36.5591 16.254 35.9419V26.4912H21.7463V35.9419C21.7463 36.5591 22.2467 37.0594 22.8638 37.0594H32.2085C32.8256 37.0594 33.326 36.5591 33.326 35.9419V20.3767H36.0496C36.8605 20.3767 37.5738 19.888 37.8668 19.1319C38.1593 18.3756 37.9613 17.534 37.3618 16.9877Z" fill="#91B6FF"/>
<path d="M33.0341 3.17139H25.5292L34.1516 11.0115V4.28882C34.1516 3.67169 33.6513 3.17139 33.0341 3.17139Z" fill="#91B6FF"/>
</g>
<defs>
<clipPath id="clip0_2024_86">
<rect width="38" height="38" fill="white"/>
</clipPath>
</defs>
</svg>
