<svg width="55" height="54" viewBox="0 0 55 54" fill="none" xmlns="http://www.w3.org/2000/svg">
<g clip-path="url(#clip0_8_89)">
<path d="M37.3309 39.8677C37.3309 42.647 39.5965 44.9124 42.3756 44.9124C45.1681 44.9124 47.4204 42.647 47.4204 39.8677C47.4204 37.0884 45.1681 34.8231 42.3756 34.8231C39.5965 34.8231 37.3309 37.0884 37.3309 39.8677Z" fill="#366AD0"/>
<path d="M7.64545 39.8677C7.64545 42.647 9.911 44.9124 12.7033 44.9124C15.4826 44.9124 17.7481 42.647 17.7481 39.8677C17.7481 37.0884 15.4826 34.8231 12.7033 34.8231C9.911 34.8231 7.64545 37.0884 7.64545 39.8677Z" fill="#366AD0"/>
<path d="M3.16708 39.8677H5.01114C5.01114 35.6396 8.4621 32.1887 12.7033 32.1887C16.9315 32.1887 20.3824 35.6396 20.3824 39.8677H34.6966C34.6966 35.6396 38.1476 32.1887 42.3756 32.1887C46.6037 32.1887 50.0547 35.6396 50.0547 39.8677H51.8329C52.5573 39.8677 53.15 39.275 53.15 38.5505V21.9937C53.15 21.6513 53.0183 21.3088 52.7681 21.0585L45.5104 13.801C45.2602 13.5639 44.931 13.4192 44.5753 13.4192H34.2355V10.4047C34.2355 9.68028 33.6429 9.08763 32.9184 9.08763H3.16708C2.44263 9.08763 1.84998 9.68028 1.84998 10.4047V38.5505C1.84998 39.275 2.44263 39.8677 3.16708 39.8677ZM37.0661 16.0535H42.8199C43.1542 16.0535 43.4748 16.1863 43.7112 16.4226L49.4533 22.1646C49.6896 22.401 49.8224 22.7216 49.8224 23.0559V24.2385C49.8224 24.9346 49.2581 25.4989 48.562 25.4989H37.0661C36.37 25.4989 35.8057 24.9346 35.8057 24.2385V17.3139C35.8057 16.6178 36.37 16.0535 37.0661 16.0535Z" fill="#366AD0"/>
</g>
<defs>
<clipPath id="clip0_8_89">
<rect width="54" height="54" fill="white" transform="translate(0.5)"/>
</clipPath>
</defs>
</svg>
