<svg width="39" height="38" viewBox="0 0 39 38" fill="none" xmlns="http://www.w3.org/2000/svg">
<path d="M36.5579 21.1298C35.398 21.1298 34.4491 22.0787 34.4491 23.2386V26.0854C34.4491 30.324 30.9907 33.7824 26.7521 33.7824H12.5812C8.34256 33.7824 4.88416 30.324 4.88416 26.0854V11.9146C4.88416 7.67595 8.34256 4.21753 12.5812 4.21753H15.4069C16.5667 4.21753 17.5157 3.26859 17.5157 2.10877C17.5157 0.948945 16.5667 0 15.4069 0H12.5812C6.00183 0 0.666626 5.35631 0.666626 11.9146V26.0854C0.666626 32.6648 6.02292 37.9999 12.5812 37.9999H26.7521C33.3314 37.9999 38.6666 32.6437 38.6666 26.0854V23.2386C38.6666 22.0787 37.7177 21.1298 36.5579 21.1298Z" fill="#366AD0"/>
<path d="M9.69213 15.4359C8.86971 16.2584 8.86971 17.5869 9.69213 18.4093L16.5667 25.2839C17.3259 26.043 18.3592 26.4646 19.4346 26.4646H19.6877C20.8475 26.4013 21.923 25.8322 22.64 24.9043L36.0306 7.67576C36.7476 6.7479 36.5789 5.4404 35.6721 4.72342C34.7443 4.00644 33.4368 4.17525 32.7199 5.08202L19.4346 22.184L12.6866 15.4359C11.8642 14.6135 10.5357 14.6135 9.71324 15.4359H9.69213Z" fill="#366AD0"/>
</svg>
