<svg width="38" height="38" viewBox="0 0 38 38" fill="none" xmlns="http://www.w3.org/2000/svg">
<g clip-path="url(#clip0_2024_101)">
<g clip-path="url(#clip1_2024_101)">
<path d="M16.164 11.9953L19 10.5043L21.8361 11.9953C21.9831 12.0727 22.1489 12.1073 22.3147 12.0953C22.4804 12.0834 22.6395 12.0252 22.774 11.9276C22.9084 11.8299 23.0129 11.6966 23.0755 11.5426C23.1381 11.3887 23.1564 11.2203 23.1284 11.0565L22.5866 7.89844L24.8811 5.66193C25.0001 5.54593 25.0843 5.39896 25.1241 5.23762C25.1639 5.07629 25.1578 4.90703 25.1065 4.74898C25.0551 4.59094 24.9606 4.45041 24.8335 4.34329C24.7065 4.23617 24.552 4.16673 24.3876 4.14282L21.2167 3.68207L19.7987 0.80899C19.7251 0.659959 19.6114 0.534479 19.4702 0.446739C19.3291 0.358999 19.1662 0.3125 19 0.3125C18.8338 0.3125 18.6709 0.358999 18.5298 0.446739C18.3887 0.534479 18.2749 0.659959 18.2013 0.80899L16.7833 3.68207L13.6125 4.14282C13.448 4.16673 13.2935 4.23617 13.1665 4.34329C13.0395 4.45041 12.9449 4.59094 12.8936 4.74898C12.8422 4.90703 12.8361 5.07629 12.8759 5.23762C12.9158 5.39896 12.9999 5.54593 13.1189 5.66193L15.4133 7.89844L14.8715 11.0565C14.8434 11.2203 14.8617 11.3887 14.9244 11.5426C14.987 11.6966 15.0914 11.8299 15.2259 11.9276C15.3603 12.0252 15.5194 12.0834 15.6852 12.0953C15.8509 12.1073 16.0167 12.0727 16.1638 11.9953H16.164Z" fill="#91B6FF"/>
<path d="M37.3346 13.5371L34.7711 11.6148L34.9014 8.41326C34.9082 8.24717 34.8683 8.08251 34.7864 7.93788C34.7044 7.79326 34.5837 7.67446 34.4377 7.59492C34.2917 7.51538 34.1264 7.47827 33.9605 7.48779C33.7945 7.49731 33.6346 7.55309 33.4987 7.64881L30.8786 9.49277L27.874 8.37949C27.7182 8.32177 27.5493 8.30879 27.3865 8.34203C27.2237 8.37527 27.0734 8.45339 26.9527 8.56757C26.832 8.68175 26.7456 8.82742 26.7033 8.98813C26.661 9.14884 26.6646 9.31816 26.7135 9.47696L27.6575 12.5389L25.6704 15.0525C25.5673 15.1829 25.5028 15.3395 25.4841 15.5046C25.4653 15.6697 25.4932 15.8368 25.5645 15.9869C25.6358 16.137 25.7477 16.2642 25.8874 16.3541C26.0272 16.4439 26.1894 16.4929 26.3556 16.4954L29.5593 16.5437L31.3358 19.2104C31.4171 19.3324 31.5273 19.4325 31.6565 19.5017C31.7858 19.571 31.9301 19.6072 32.0768 19.6072C32.1152 19.6072 32.1536 19.6047 32.1917 19.5998C32.3565 19.5784 32.512 19.5113 32.6407 19.4061C32.7694 19.3009 32.866 19.1618 32.9198 19.0046L33.9558 15.9725L37.0408 15.107C37.2008 15.0622 37.3451 14.9734 37.4573 14.8508C37.5695 14.7282 37.6451 14.5767 37.6757 14.4133C37.7062 14.25 37.6905 14.0814 37.6302 13.9265C37.5699 13.7716 37.4675 13.6368 37.3346 13.5371Z" fill="#91B6FF"/>
<path d="M11.6445 16.4955C11.8106 16.4929 11.9728 16.444 12.1126 16.3541C12.2524 16.2643 12.3643 16.1371 12.4355 15.987C12.5068 15.8369 12.5347 15.6698 12.516 15.5047C12.4973 15.3395 12.4327 15.1829 12.3297 15.0526L10.3425 12.539L11.2865 9.47704C11.3355 9.31823 11.339 9.1489 11.2968 8.98818C11.2545 8.82746 11.1681 8.68177 11.0474 8.56758C10.9267 8.45339 10.7764 8.37526 10.6136 8.34202C10.4507 8.30878 10.2819 8.32176 10.126 8.37949L7.12144 9.49277L4.50152 7.64881C4.36562 7.55309 4.20564 7.49731 4.03969 7.48779C3.87374 7.47827 3.70843 7.51538 3.56248 7.59492C3.41652 7.67446 3.29574 7.79326 3.21379 7.93788C3.13184 8.08251 3.092 8.24717 3.09878 8.41326L3.22903 11.6148L0.665594 13.5371C0.53265 13.6368 0.430251 13.7717 0.369977 13.9266C0.309703 14.0814 0.293956 14.2501 0.324518 14.4134C0.35508 14.5768 0.430732 14.7283 0.542919 14.8509C0.655106 14.9735 0.799353 15.0622 0.959351 15.1071L4.0444 15.9726L5.08027 19.0046C5.13401 19.1619 5.23067 19.301 5.35933 19.4062C5.48798 19.5114 5.6435 19.5784 5.8083 19.5999C5.97309 19.6213 6.14059 19.5961 6.29186 19.5273C6.44312 19.4585 6.57211 19.3488 6.66425 19.2105L8.44075 16.5438L11.6445 16.4955Z" fill="#91B6FF"/>
<path d="M29.9844 25.8279C30.3793 25.8279 30.7631 25.6966 31.0753 25.4548C31.3876 25.213 31.6107 24.8743 31.7095 24.492C31.6107 24.1096 31.3876 23.7709 31.0753 23.5291C30.7631 23.2873 30.3793 23.156 29.9844 23.156H23.4531V19.074C23.4531 17.9635 23.4531 15.7497 20.5399 15.467C20.4576 15.4592 20.3745 15.4688 20.2961 15.495C20.2177 15.5212 20.1456 15.5635 20.0844 15.6192C20.0233 15.6749 19.9745 15.7428 19.9411 15.8185C19.9078 15.8941 19.8906 15.9759 19.8906 16.0586V20.0935C19.8906 20.2033 19.8601 20.311 19.8025 20.4046L18.1094 23.156H18.1836L15.7344 24.7555V36.1968C16.0952 36.406 16.5049 36.5159 16.9219 36.5154H28.7969C29.1918 36.5154 29.5756 36.3841 29.8878 36.1423C30.2001 35.9005 30.4232 35.5618 30.522 35.1795C30.4232 34.7971 30.2001 34.4584 29.8878 34.2166C29.5756 33.9748 29.1918 33.8435 28.7969 33.8435H27.0156V32.9529H29.3906C29.7856 32.9529 30.1693 32.8216 30.4816 32.5798C30.7938 32.338 31.0169 31.9993 31.1158 31.617C31.0169 31.2346 30.7938 30.8959 30.4816 30.6541C30.1693 30.4123 29.7856 30.281 29.3906 30.281H27.0156V29.3904H29.9844C30.3793 29.3904 30.7631 29.2591 31.0753 29.0173C31.3876 28.7755 31.6107 28.4368 31.7095 28.0545C31.6107 27.6721 31.3876 27.3334 31.0753 27.0916C30.7631 26.8498 30.3793 26.7185 29.9844 26.7185H27.0156V25.8279H29.9844Z" fill="#91B6FF"/>
<path d="M13.9531 23.1562H8.01562C7.77942 23.1562 7.55288 23.2501 7.38586 23.4171C7.21883 23.5841 7.125 23.8107 7.125 24.0469V36.5156C7.125 36.7518 7.21883 36.9784 7.38586 37.1454C7.55288 37.3124 7.77942 37.4062 8.01562 37.4062H13.9531C14.1893 37.4062 14.4159 37.3124 14.5829 37.1454C14.7499 36.9784 14.8438 36.7518 14.8438 36.5156V24.0469C14.8437 23.8107 14.7499 23.5841 14.5829 23.4171C14.4159 23.2501 14.1893 23.1562 13.9531 23.1562ZM10.9844 35.9961C10.8082 35.9961 10.636 35.9439 10.4896 35.846C10.3431 35.7481 10.229 35.609 10.1615 35.4463C10.0941 35.2836 10.0765 35.1045 10.1109 34.9317C10.1452 34.759 10.2301 34.6003 10.3546 34.4757C10.4792 34.3511 10.6379 34.2663 10.8106 34.232C10.9834 34.1976 11.1625 34.2152 11.3252 34.2826C11.4879 34.35 11.627 34.4642 11.7249 34.6107C11.8228 34.7571 11.875 34.9293 11.875 35.1055C11.875 35.3417 11.7812 35.5682 11.6141 35.7352C11.4471 35.9023 11.2206 35.9961 10.9844 35.9961Z" fill="#91B6FF"/>
</g>
</g>
<defs>
<clipPath id="clip0_2024_101">
<rect width="38" height="38" fill="white"/>
</clipPath>
<clipPath id="clip1_2024_101">
<rect width="38" height="38" fill="white"/>
</clipPath>
</defs>
</svg>
