<svg width="2747" height="855" viewBox="0 0 2747 855" fill="none" xmlns="http://www.w3.org/2000/svg">
<path d="M2744 2.97363C2754.5 76 2734.32 109.5 2700.65 190.167C2645.29 322.829 2544.84 444.41 2383.95 444.41C2293.6 444.41 2228.18 423.09 2179.44 385.225C2131.71 348.135 2105.63 299.316 2086.18 257.026C2065.14 211.301 2053.21 177.982 2032.47 149.772C2014.87 125.839 1992.17 108.162 1950.46 101.847C1900.06 94.2161 1844.9 116.611 1797.88 164.865C1751.12 212.857 1717.68 281.719 1711.25 353.383C1703.14 443.637 1674.24 539.088 1629.19 617.15C1584.85 693.979 1520.01 761.945 1436.09 782.036C1363.9 799.317 1307.33 800.98 1260.88 787.768C1212.86 774.108 1181.89 746.333 1158.42 717.84C1147.18 704.203 1137.09 689.665 1128.33 677.205C1119.16 664.166 1111.01 652.771 1102.05 642.205C1084.97 622.084 1065.65 605.881 1036.1 595.665C1007.59 585.804 970.31 594.478 925.984 619.114C881.946 643.591 847.098 673.956 818.714 694.448C695.01 783.76 504.248 852.872 339.301 854.869C256.603 855.87 174.628 840.055 110.901 795.347C44.8743 749.024 4.64147 676.005 0 577.258L99.8906 572.562C103.249 644.015 130.454 686.909 168.333 713.483C208.513 741.672 266.913 755.737 338.09 754.876C480.893 753.147 651.88 691.559 760.177 613.371C779.475 599.438 826.618 559.934 877.404 531.707C927.903 503.64 998.287 476.777 1068.79 501.155C1119.49 518.689 1152.92 547.596 1178.29 577.502C1190.56 591.95 1201.07 606.797 1210.12 619.676C1219.59 633.133 1227.3 644.186 1235.6 654.26C1251.19 673.188 1266.19 685.311 1288.24 691.585C1311.87 698.307 1349.49 699.94 1412.8 684.784C1458.38 673.874 1504.54 633.091 1542.58 567.17C1579.9 502.482 1604.75 421.183 1611.65 344.437C1620.21 249.101 1664.02 158.963 1726.26 95.08C1788.24 31.4597 1873.83 -10.8959 1965.43 2.97353C2035.72 13.616 2081.15 47.1678 2113.04 90.539C2141.78 129.634 2160.68 179.695 2177.02 215.23C2194.95 254.201 2212.82 284.523 2240.8 306.259C2267.77 327.219 2309.83 344.41 2383.95 344.41C2484.05 344.41 2558.77 270.491 2608.37 151.653C2644.39 78 2651 85.5 2644.39 11.7939L2744 2.97363Z" fill="#DBE4FB"/>
</svg>
