<svg width="38" height="38" viewBox="0 0 38 38" fill="none" xmlns="http://www.w3.org/2000/svg">
<g clip-path="url(#clip0_2024_71)">
<path d="M33.4911 26.3149C39.5029 20.303 39.5028 10.5208 33.4911 4.50893C27.4792 -1.50298 17.6972 -1.50298 11.6854 4.50893C6.5851 9.60922 5.81266 17.1947 9.36599 23.1181C9.36599 23.1181 9.62123 23.5463 9.27651 23.8907C7.30991 25.8572 1.40977 31.7575 1.40977 31.7575C-0.156041 33.3232 -0.528794 35.5126 0.859757 36.9014L1.09883 37.1402C2.48738 38.529 4.67689 38.1564 6.24258 36.5905C6.24258 36.5905 12.1302 30.7028 14.0928 28.7403C14.454 28.3791 14.8821 28.6343 14.8821 28.6343C20.8054 32.1875 28.3908 31.4152 33.4911 26.3149ZM14.532 23.4682C10.0898 19.026 10.09 11.7981 14.5321 7.35594C18.9743 2.91387 26.2022 2.91375 30.6443 7.35594C35.0864 11.798 35.0864 19.026 30.6443 23.4682C26.2021 27.9101 18.9743 27.9101 14.532 23.4682Z" fill="#91B6FF"/>
<path d="M15.5161 14.497C15.3093 14.497 15.0991 14.4563 14.8965 14.3708C14.0873 14.0282 13.7086 13.0945 14.0511 12.2851C16.2039 7.19762 22.0942 4.81016 27.1815 6.96295C27.9908 7.30546 28.3694 8.23924 28.0269 9.04865C27.6842 9.85806 26.7507 10.2364 25.941 9.89405C22.4701 8.42531 18.451 10.0543 16.9824 13.5252C16.7254 14.1323 16.1361 14.497 15.5161 14.497Z" fill="#91B6FF"/>
</g>
<defs>
<clipPath id="clip0_2024_71">
<rect width="38" height="38" fill="white"/>
</clipPath>
</defs>
</svg>
