<svg width="20" height="20" viewBox="0 0 20 20" fill="none" xmlns="http://www.w3.org/2000/svg">
<g clip-path="url(#clip0_2_2)">
<path d="M3.26969 4.54438C2.497 4.54438 1.87057 3.9176 1.87109 3.14491C1.87162 2.37204 2.49875 1.74613 3.27145 1.74701C4.04431 1.74806 4.66987 2.37555 4.66829 3.14841C4.66619 3.91953 4.04081 4.54368 3.26969 4.54438ZM3.26969 2.63159C2.98576 2.63159 2.75567 2.8615 2.75515 3.14543C2.7548 3.42936 2.98436 3.65998 3.26829 3.66068C3.55222 3.66156 3.78301 3.43234 3.78424 3.14841C3.78476 3.01162 3.73075 2.88027 3.63429 2.78329C3.53766 2.68631 3.40648 2.63177 3.26969 2.63159Z" fill="#366AD0"/>
<path d="M3.60798 13.7262H1.87547C1.63135 13.7262 1.43353 13.5282 1.43353 13.2841C1.43353 13.04 1.63135 12.842 1.87547 12.842H3.60833C3.85245 12.842 4.05045 13.04 4.05045 13.2841C4.05045 13.5282 3.85245 13.7262 3.60833 13.7262H3.60798Z" fill="#366AD0"/>
<path d="M3.60798 15.0001H1.87547C1.63135 15.0001 1.43353 14.8023 1.43353 14.558C1.43353 14.3139 1.63135 14.1161 1.87547 14.1161H3.60833C3.85245 14.1161 4.05045 14.3139 4.05045 14.558C4.05045 14.8023 3.85245 15.0001 3.60833 15.0001H3.60798Z" fill="#366AD0"/>
<path d="M3.60798 16.2737H1.87547C1.63135 16.2737 1.43353 16.0757 1.43353 15.8316C1.43353 15.5874 1.63135 15.3896 1.87547 15.3896H3.60833C3.85245 15.3896 4.05045 15.5874 4.05045 15.8316C4.05045 16.0757 3.85245 16.2737 3.60833 16.2737H3.60798Z" fill="#366AD0"/>
<path d="M19.7682 6.98137C19.6799 6.89789 19.5608 6.85457 19.4394 6.86159L13.4475 7.21514C13.2133 7.22882 13.0306 7.42278 13.0309 7.65725V7.91856H12.2989V6.70059H15.2254C15.4695 6.70059 15.6673 6.50277 15.6673 6.25865V3.21243C15.6678 1.43818 14.2294 -0.000403906 12.455 0.000122215H3.72496C2.92034 0.00134983 2.13888 0.269846 1.50333 0.76352C0.622259 1.44625 0.10789 2.49919 0.111222 3.61386V19.5581C0.111222 19.8022 0.309218 20.0002 0.553337 20.0002H14.1202C14.9748 20.0002 15.6673 19.3074 15.6673 18.453V16.9818C15.6673 16.7377 15.4695 16.5397 15.2254 16.5397H12.2291C12.6863 16.1025 12.9981 15.5352 13.1225 14.9149H13.8943C14.7166 14.9149 15.3832 14.2483 15.3832 13.426C15.3832 12.6038 14.7166 11.9372 13.8943 11.9372H13.1832V11.8611C13.1832 11.617 12.9852 11.4192 12.7411 11.4192H7.44005C7.19594 11.4192 6.99794 11.617 6.99794 11.8611V14.3083C6.99759 15.1513 7.34255 15.9577 7.95232 16.5397H5.37171V6.70059H7.88164V8.41714C7.88252 9.31102 8.60699 10.0353 9.50086 10.0364H10.6797C11.4266 10.0353 12.0762 9.52427 12.253 8.79858H13.0309V9.05936C13.0306 9.29383 13.2133 9.48797 13.4475 9.50147L19.4394 9.8552H19.465C19.7091 9.8552 19.9071 9.6572 19.9071 9.41309V7.3037C19.9073 7.18164 19.857 7.06502 19.7682 6.98137ZM13.8943 12.8213C14.2284 12.8213 14.499 13.0921 14.499 13.426C14.499 13.7601 14.2284 14.0307 13.8943 14.0307H13.1832V12.8213H13.8943ZM7.88252 14.3083V12.3032H12.2989V14.3083C12.2516 15.4936 11.2769 16.4301 10.0905 16.4301C8.90424 16.4301 7.92952 15.4936 7.88199 14.3083H7.88252ZM14.7833 17.4239V18.4551C14.7833 18.8213 14.4864 19.1182 14.1202 19.1182H5.37171V17.4239H14.7833ZM11.4149 8.41714C11.4144 8.82296 11.0855 9.15178 10.6797 9.15231H9.50086C9.09505 9.15178 8.76622 8.82296 8.7657 8.41714V6.70059H11.4149V8.41714ZM4.95607 5.81654H4.92959C4.68547 5.81654 4.48765 6.01453 4.48765 6.25865V19.1159H0.995452V3.61386C0.992646 2.77207 1.3811 1.97675 2.04664 1.46115C2.52716 1.08849 3.11817 0.886281 3.72636 0.886457H12.4541C13.7396 0.885755 14.7824 1.92712 14.7833 3.21243V5.81654H4.95607ZM19.0229 8.94274L13.9152 8.64355V8.07096L19.0229 7.77177V8.94274Z" fill="#366AD0"/>
</g>
<defs>
<clipPath id="clip0_2_2">
<rect width="20" height="20" fill="white"/>
</clipPath>
</defs>
</svg>
