<svg width="40" height="40" viewBox="0 0 40 40" fill="none" xmlns="http://www.w3.org/2000/svg">
<rect width="40" height="40" rx="12" fill="#366AD0"/>
<g clip-path="url(#clip0_44_1008)">
<path d="M27.875 26.7501H12.125C11.5037 26.7501 11 26.2464 11 25.6251C11 25.0038 11.5037 24.5001 12.125 24.5001H27.875C28.4963 24.5001 29 25.0038 29 25.6251C29 26.2464 28.4963 26.7501 27.875 26.7501Z" fill="white"/>
<path d="M27.875 21.125H12.125C11.5037 21.125 11 20.6214 11 20.0001C11 19.3788 11.5037 18.8751 12.125 18.8751H27.875C28.4963 18.8751 29 19.3787 29 20.0001C29 20.6214 28.4963 21.125 27.875 21.125Z" fill="white"/>
<path d="M27.875 15.5H12.125C11.5037 15.5 11 14.9964 11 14.375C11 13.7537 11.5037 13.25 12.125 13.25H27.875C28.4963 13.25 29 13.7537 29 14.375C29 14.9964 28.4963 15.5 27.875 15.5Z" fill="white"/>
</g>
<defs>
<clipPath id="clip0_44_1008">
<rect width="18" height="18" fill="white" transform="translate(11 11)"/>
</clipPath>
</defs>
</svg>
